<?xml version="1.0" encoding="utf-8"?>
<!-- Generator: Adobe Illustrator 16.0.0, SVG Export Plug-In . SVG Version: 6.00 Build 0)  -->
<!DOCTYPE svg PUBLIC "-//W3C//DTD SVG 1.1//EN" "http://www.w3.org/Graphics/SVG/1.1/DTD/svg11.dtd">
<svg version="1.1" id="Ebene_1" xmlns="http://www.w3.org/2000/svg" xmlns:xlink="http://www.w3.org/1999/xlink" x="0px" y="0px"
	 width="512px" height="512px" viewBox="0 0 512 512" enable-background="new 0 0 512 512" xml:space="preserve">
<circle fill="#0E874E" cx="256" cy="256" r="251.451"/>
<path fill-opacity="0.3" d="M507.451,256c0-13.271-1.036-26.299-3.017-39.014L367.121,95.018L215,104.999l-48.264,215.616
	l-63.992,72.043l127.801,113.519c8.371,0.842,16.861,1.275,25.454,1.275C394.873,507.451,507.451,394.873,507.451,256z"/>
<g>
	<path fill="#7AC943" d="M102.39,393l64.823-325.195H290.35c21.801,0,38.301,2.053,49.492,6.152
		c11.192,4.099,20.085,11.24,26.671,21.42c6.584,10.18,9.877,21.859,9.877,35.04c0,21.382-7.316,42.033-21.949,61.953
		c-14.632,19.919-35.922,36.32-63.868,49.208L360.29,393h-73.439l-55.402-135.57h-35.678L168.748,393H102.39z M204.398,214.143
		h20.38c25.419,0,45.322-7.91,59.714-23.73c14.389-15.82,21.584-32.152,21.584-48.999c0-6.592-1.572-11.938-4.717-16.04
		c-3.145-4.099-8.301-7.285-15.471-9.558c-7.168-2.27-21.135-3.406-41.902-3.406h-19.309L204.398,214.143z"/>
</g>
</svg>
